
<svg width="47px" height="31px" viewBox="0 0 47 31" version="1.1" xmlns="http://www.w3.org/2000/svg" xmlns:xlink="http://www.w3.org/1999/xlink">
    <!-- Generator: Sketch 44.1 (41455) - http://www.bohemiancoding.com/sketch -->
    <desc>Created with Sketch.</desc>
    <defs>
        <filter x="-4.4%" y="-3.4%" width="108.9%" height="113.8%" filterUnits="objectBoundingBox" id="filter-1">
            <feOffset dx="0" dy="1" in="SourceAlpha" result="shadowOffsetOuter1"></feOffset>
            <feGaussianBlur stdDeviation="0.5" in="shadowOffsetOuter1" result="shadowBlurOuter1"></feGaussianBlur>
            <feColorMatrix values="0 0 0 0 0   0 0 0 0 0   0 0 0 0 0  0 0 0 0.5 0" type="matrix" in="shadowBlurOuter1" result="shadowMatrixOuter1"></feColorMatrix>
            <feMerge>
                <feMergeNode in="shadowMatrixOuter1"></feMergeNode>
                <feMergeNode in="SourceGraphic"></feMergeNode>
            </feMerge>
        </filter>
    </defs>
    <g id="16-Player-States-1024" stroke="none" stroke-width="1" fill="none" fill-rule="evenodd">
        <g id="05-1024x768-Quality" transform="translate(-804.000000, -38.000000)">
            <g id="Data-Saver-Icon-Copy" filter="url(#filter-1)" transform="translate(805.000000, 38.000000)">
                <path d="M12.6086957,13.1988837 L12.6086957,5.81151167 C11.5401416,5.7216494 10.472649,5.77479323 9.38103768,5.9445635 C9.15374493,5.96944466 9.05253913,6.04576929 9.02765797,6.29794321 C8.97655072,6.82851712 8.85046377,7.35774611 8.82524638,7.88697509 C8.80036522,8.39132292 8.67427826,8.76958379 8.09394203,8.87078958 C7.94263768,8.89567074 7.79166957,8.97065045 7.66558261,9.04663886 C7.48973333,9.17272582 7.33742029,9.1229635 7.16123478,8.99687654 C6.6320058,8.59373451 6.05133333,8.18924756 5.52210435,7.76088814 C5.37113623,7.63480118 5.26993043,7.60992002 5.09408116,7.73600698 C3.85809275,8.59373451 2.79929855,9.62731132 1.96678841,10.8881809 C1.91568116,10.9893867 1.91568116,11.1901171 1.99166957,11.2913229 C2.21896232,11.6198215 2.47113623,11.9732012 2.7481913,12.2751374 C3.30263768,12.8554736 3.50471304,13.4596823 3.00036522,14.1664418 C2.97548406,14.2162041 2.97548406,14.2925287 2.9506029,14.3174099 C2.8493971,14.4186157 2.7481913,14.5447026 2.62210435,14.5695838 C1.91568116,14.6956707 1.21026667,14.7719954 0.503507246,14.8980823 C0.402637681,14.8980823 0.251333333,15.0490505 0.226452174,15.1502563 C-0.075484058,16.6380823 -0.075484058,18.1000186 0.226452174,19.5881809 C0.251333333,19.6893867 0.402637681,19.8403548 0.503507246,19.865236 C0.982973913,19.9664418 1.48732174,20.0676476 1.99166957,20.0925287 C2.59722319,20.143636 3.05046377,20.2697229 3.15133333,20.9502563 C3.15133333,21.0763432 3.22631304,21.2024302 3.30263768,21.303636 C3.42872464,21.4808302 3.37862609,21.6317983 3.25253913,21.7827664 C2.8493971,22.3123316 2.44491014,22.8926678 2.01655072,23.4218968 C1.89046377,23.5994273 1.86558261,23.7255142 1.99166957,23.9013635 C2.8493971,25.1373519 3.88297391,26.1709287 5.11896232,27.0286563 C5.29615652,27.1547432 5.42224348,27.1547432 5.59842899,27.0037751 C6.00291594,26.6766215 6.45582029,26.4244476 6.8092,26.0710678 C7.26378551,25.6430447 7.6918087,25.5418389 8.19615652,25.8952186 C8.29736232,25.9449809 8.42344928,25.9964244 8.52465507,26.0213055 C8.75194783,26.0710678 8.82793623,26.1971548 8.85281739,26.4244476 C8.9277971,27.1046447 9.05388406,27.7865229 9.1302087,28.46672 C9.15508986,28.6691316 9.22973333,28.7703374 9.43214493,28.7952186 C10.9203072,29.0722736 12.3819072,29.0722736 13.8700696,28.7703374 C13.9961565,28.74512 14.1222435,28.5941519 14.1471246,28.4929461 C14.2483304,27.9637171 14.3495362,27.408262 14.3744174,26.8790331 C14.3992986,26.3494678 14.5506029,25.971207 15.1309391,25.8703374 C15.2819072,25.84512 15.4332116,25.7704765 15.5592986,25.6941519 C15.7364928,25.5680649 15.8874609,25.6181635 16.038429,25.7442505 C16.5679942,26.1473925 17.1483304,26.5518794 17.6775594,26.9799026 C17.8550899,27.1059896 17.9811768,27.131207 18.1570261,27.00512 C19.3930145,26.1473925 20.4265913,25.1138157 21.2594377,23.8778273 C21.3105449,23.7779664 21.3105449,23.5506736 21.2345565,23.4494678 C20.9309391,23.0214447 20.6290029,22.5920765 20.2756232,22.1885983 C19.8973623,21.7854563 19.7463942,21.3823142 20.0997739,20.9028476 C20.1744174,20.7767606 20.2258609,20.6257925 20.250742,20.4997055 C20.3005043,20.2724128 20.4265913,20.1964244 20.6538841,20.171207 C21.3340812,20.0965635 22.0408406,19.9953577 22.7210377,19.8692707 C22.8222435,19.8443896 22.9483304,19.7183026 22.9732116,19.6170968 C23.0481913,19.2139548 23.1245159,18.7842505 23.1493971,18.3811084 C23.2122424,17.7238427 23.216745,17.0563345 23.162744,16.3913043 L15.713156,16.3913043 C15.7783828,16.6833496 15.8128174,16.9865461 15.8128174,17.2974331 C15.8128174,19.6184418 13.8700696,21.5346273 11.550742,21.5346273 C9.20485217,21.5097461 7.28866667,19.6184418 7.31354783,17.2725519 C7.31354783,14.9283432 9.22973333,13.0370389 11.5756232,13.0605751 C11.9312883,13.0645945 12.2774606,13.1124217 12.6086957,13.1988837 Z" id="Combined-Shape" fill="#FFFFFF"></path>
                <g id="Group-2" transform="translate(14.500000, 0.000000)">
                    <rect id="Rectangle-5" fill="#FFFFFF" x="0.630434783" y="0" width="29" height="13.8695652"></rect>
                    <text id="HD" font-family=".AppleSystemUIFont" font-size="12" font-weight="normal" fill="#000000">
                        <tspan x="6.23730469" y="12">SAVER</tspan>
                    </text>
                </g>
            </g>
        </g>
    </g>
</svg>
