<svg width="20px" height="12px" viewBox="0 0 20 12" version="1.1" xmlns="http://www.w3.org/2000/svg" xmlns:xlink="http://www.w3.org/1999/xlink">
    <!-- Generator: Sketch 44.1 (41455) - http://www.bohemiancoding.com/sketch -->
    <desc>Created with Sketch.</desc>
    <defs></defs>
    <g id="Symbols" stroke="none" stroke-width="1" fill="none" fill-rule="evenodd">
        <g id="Episodes-Dropdown" transform="translate(-575.000000, -182.000000)" fill="#FFD500">
            <path d="M594.139999,183.591804 C594.139999,183.438377 594.063286,183.265772 593.948216,183.150701 L592.989298,182.191784 C592.874228,182.076713 592.701623,182 592.548196,182 C592.394769,182 592.222164,182.076713 592.107094,182.191784 L584.57,189.728878 L577.032906,182.191784 C576.917836,182.076713 576.74523,182 576.591804,182 C576.419198,182 576.265772,182.076713 576.150701,182.191784 L575.191784,183.150701 C575.076713,183.265772 575,183.438377 575,183.591804 C575,183.74523 575.076713,183.917836 575.191784,184.032906 L584.128898,192.97002 C584.243968,193.08509 584.416573,193.161803 584.57,193.161803 C584.723427,193.161803 584.896032,193.08509 585.011102,192.97002 L593.948216,184.032906 C594.063286,183.917836 594.139999,183.74523 594.139999,183.591804 Z" id="" transform="translate(584.570000, 187.580902) scale(1, -1) translate(-584.570000, -187.580902) "></path>
        </g>
    </g>
</svg>
