<svg width="14px" height="8px" viewBox="0 0 14 8" version="1.1" xmlns="http://www.w3.org/2000/svg" xmlns:xlink="http://www.w3.org/1999/xlink">
    <!-- Generator: Sketch 44.1 (41455) - http://www.bohemiancoding.com/sketch -->
    <desc>Created with Sketch.</desc>
    <defs></defs>
    <g id="Symbols" stroke="none" stroke-width="1" fill="none" fill-rule="evenodd">
        <g id="Web-1024x768" transform="translate(-350.000000, -47.000000)" fill="#FFD500">
            <g id="Group-6" transform="translate(50.000000, 30.000000)">
                <g id="Group-5" transform="translate(210.000000, 0.000000)">
                    <path d="M103.14,18.0928056 C103.14,17.987475 103.087335,17.868978 103.008337,17.78998 L102.35002,17.1316633 C102.271022,17.0526653 102.152525,17 102.047195,17 C101.941864,17 101.823367,17.0526653 101.744369,17.1316633 L96.5700002,22.3060322 L91.3956313,17.1316633 C91.3166333,17.0526653 91.1981363,17 91.0928056,17 C90.9743086,17 90.868978,17.0526653 90.78998,17.1316633 L90.1316633,17.78998 C90.0526653,17.868978 90,17.987475 90,18.0928056 C90,18.1981363 90.0526653,18.3166333 90.1316633,18.3956313 L96.2671745,24.5311425 C96.3461725,24.6101405 96.4646695,24.6628058 96.5700002,24.6628058 C96.6753308,24.6628058 96.7938278,24.6101405 96.8728258,24.5311425 L103.008337,18.3956313 C103.087335,18.3166333 103.14,18.1981363 103.14,18.0928056 Z" id=""></path>
                </g>
            </g>
        </g>
    </g>
</svg>
